G04*
G04 #@! TF.GenerationSoftware,Altium Limited,Altium Designer,20.2.5 (213)*
G04*
G04 Layer_Physical_Order=2*
G04 Layer_Color=16711680*
%FSLAX25Y25*%
%MOIN*%
G70*
G04*
G04 #@! TF.SameCoordinates,D13279C3-A8A1-413E-BFD4-EE2126F61682*
G04*
G04*
G04 #@! TF.FilePolarity,Positive*
G04*
G01*
G75*
%ADD28O,0.08268X0.05512*%
G04:AMPARAMS|DCode=29|XSize=157.48mil|YSize=157.48mil|CornerRadius=39.37mil|HoleSize=0mil|Usage=FLASHONLY|Rotation=0.000|XOffset=0mil|YOffset=0mil|HoleType=Round|Shape=RoundedRectangle|*
%AMROUNDEDRECTD29*
21,1,0.15748,0.07874,0,0,0.0*
21,1,0.07874,0.15748,0,0,0.0*
1,1,0.07874,0.03937,-0.03937*
1,1,0.07874,-0.03937,-0.03937*
1,1,0.07874,-0.03937,0.03937*
1,1,0.07874,0.03937,0.03937*
%
%ADD29ROUNDEDRECTD29*%
%ADD30C,0.02756*%
G36*
X491315Y246874D02*
X335456D01*
Y353520D01*
X491315D01*
Y246874D01*
D02*
G37*
%LPC*%
G36*
X484252Y351428D02*
X482965Y351259D01*
X481766Y350762D01*
X480736Y349972D01*
X479946Y348942D01*
X479450Y347743D01*
X479280Y346457D01*
X479450Y345170D01*
X479946Y343971D01*
X480736Y342941D01*
X481766Y342151D01*
X482965Y341654D01*
X484252Y341485D01*
X485539Y341654D01*
X486738Y342151D01*
X487768Y342941D01*
X488558Y343971D01*
X489054Y345170D01*
X489224Y346457D01*
X489054Y347743D01*
X488558Y348942D01*
X487768Y349972D01*
X486738Y350762D01*
X485539Y351259D01*
X484252Y351428D01*
D02*
G37*
G36*
X342520D02*
X341233Y351259D01*
X340034Y350762D01*
X339004Y349972D01*
X338214Y348942D01*
X337717Y347743D01*
X337548Y346457D01*
X337717Y345170D01*
X338214Y343971D01*
X339004Y342941D01*
X340034Y342151D01*
X341233Y341654D01*
X342520Y341485D01*
X343806Y341654D01*
X345005Y342151D01*
X346035Y342941D01*
X346825Y343971D01*
X347322Y345170D01*
X347491Y346457D01*
X347322Y347743D01*
X346825Y348942D01*
X346035Y349972D01*
X345005Y350762D01*
X343806Y351259D01*
X342520Y351428D01*
D02*
G37*
G36*
X454134Y323265D02*
X451378D01*
X450502Y323150D01*
X449686Y322812D01*
X448986Y322274D01*
X448448Y321573D01*
X448110Y320758D01*
X447995Y319882D01*
X448110Y319006D01*
X448448Y318190D01*
X448986Y317490D01*
X449686Y316952D01*
X450502Y316614D01*
X451378Y316499D01*
X454134D01*
X455010Y316614D01*
X455826Y316952D01*
X456526Y317490D01*
X457064Y318190D01*
X457402Y319006D01*
X457517Y319882D01*
X457402Y320758D01*
X457064Y321573D01*
X456526Y322274D01*
X455826Y322812D01*
X455010Y323150D01*
X454134Y323265D01*
D02*
G37*
G36*
X353740Y295706D02*
X350984D01*
X350109Y295591D01*
X349293Y295253D01*
X348592Y294715D01*
X348054Y294015D01*
X347716Y293198D01*
X347601Y292323D01*
X347716Y291447D01*
X348054Y290631D01*
X348592Y289931D01*
X349293Y289393D01*
X350109Y289055D01*
X350984Y288940D01*
X353740D01*
X354616Y289055D01*
X355432Y289393D01*
X356133Y289931D01*
X356670Y290631D01*
X357008Y291447D01*
X357123Y292323D01*
X357008Y293198D01*
X356670Y294015D01*
X356133Y294715D01*
X355432Y295253D01*
X354616Y295591D01*
X353740Y295706D01*
D02*
G37*
G36*
X485236Y283118D02*
X477362D01*
X476178Y282962D01*
X475075Y282505D01*
X474127Y281778D01*
X473400Y280831D01*
X472943Y279727D01*
X472788Y278543D01*
Y270669D01*
X472943Y269485D01*
X473400Y268382D01*
X474127Y267435D01*
X475075Y266708D01*
X476178Y266251D01*
X477362Y266095D01*
X485236D01*
X486420Y266251D01*
X487524Y266708D01*
X488471Y267435D01*
X489198Y268382D01*
X489655Y269485D01*
X489811Y270669D01*
Y278543D01*
X489655Y279727D01*
X489198Y280831D01*
X488471Y281778D01*
X487524Y282505D01*
X486420Y282962D01*
X485236Y283118D01*
D02*
G37*
G36*
X354331Y282134D02*
X346457D01*
X345273Y281978D01*
X344169Y281521D01*
X343222Y280794D01*
X342495Y279846D01*
X342038Y278743D01*
X341882Y277559D01*
Y269685D01*
X342038Y268501D01*
X342495Y267398D01*
X343222Y266450D01*
X344169Y265723D01*
X345273Y265266D01*
X346457Y265110D01*
X354331D01*
X355515Y265266D01*
X356618Y265723D01*
X357565Y266450D01*
X358292Y267398D01*
X358749Y268501D01*
X358905Y269685D01*
Y277559D01*
X358749Y278743D01*
X358292Y279846D01*
X357565Y280794D01*
X356618Y281521D01*
X355515Y281978D01*
X354331Y282134D01*
D02*
G37*
G36*
X484252Y259893D02*
X482965Y259723D01*
X481766Y259227D01*
X480736Y258437D01*
X479946Y257407D01*
X479450Y256208D01*
X479280Y254921D01*
X479450Y253635D01*
X479946Y252435D01*
X480736Y251406D01*
X481766Y250616D01*
X482965Y250119D01*
X484252Y249950D01*
X485539Y250119D01*
X486738Y250616D01*
X487768Y251406D01*
X488558Y252435D01*
X489054Y253635D01*
X489224Y254921D01*
X489054Y256208D01*
X488558Y257407D01*
X487768Y258437D01*
X486738Y259227D01*
X485539Y259723D01*
X484252Y259893D01*
D02*
G37*
G36*
X342520D02*
X341233Y259723D01*
X340034Y259227D01*
X339004Y258437D01*
X338214Y257407D01*
X337717Y256208D01*
X337548Y254921D01*
X337717Y253635D01*
X338214Y252435D01*
X339004Y251406D01*
X340034Y250616D01*
X341233Y250119D01*
X342520Y249950D01*
X343806Y250119D01*
X345005Y250616D01*
X346035Y251406D01*
X346825Y252435D01*
X347322Y253635D01*
X347491Y254921D01*
X347322Y256208D01*
X346825Y257407D01*
X346035Y258437D01*
X345005Y259227D01*
X343806Y259723D01*
X342520Y259893D01*
D02*
G37*
%LPD*%
D28*
X352362Y292323D02*
D03*
Y306102D02*
D03*
X452756Y319882D02*
D03*
Y333661D02*
D03*
D29*
X481299Y328740D02*
D03*
X350394Y329724D02*
D03*
X481299Y274606D02*
D03*
X350394Y273622D02*
D03*
D30*
X466535Y342520D02*
D03*
X460630Y330709D02*
D03*
X466535Y318898D02*
D03*
X454724Y342520D02*
D03*
X442913D02*
D03*
X437008Y330709D02*
D03*
X431102Y295275D02*
D03*
X419291Y342520D02*
D03*
X413386Y330709D02*
D03*
Y307086D02*
D03*
Y283465D02*
D03*
X395669Y295275D02*
D03*
X383858D02*
D03*
X372047Y342520D02*
D03*
X366142Y330709D02*
D03*
X372047Y318898D02*
D03*
X366142Y307086D02*
D03*
X360236Y342520D02*
D03*
Y318898D02*
D03*
X348425D02*
D03*
X342520Y307086D02*
D03*
M02*
