G04*
G04 #@! TF.GenerationSoftware,Altium Limited,Altium Designer,20.2.5 (213)*
G04*
G04 Layer_Physical_Order=1*
G04 Layer_Color=255*
%FSLAX25Y25*%
%MOIN*%
G70*
G04*
G04 #@! TF.SameCoordinates,D13279C3-A8A1-413E-BFD4-EE2126F61682*
G04*
G04*
G04 #@! TF.FilePolarity,Positive*
G04*
G01*
G75*
G04:AMPARAMS|DCode=12|XSize=47.24mil|YSize=121.06mil|CornerRadius=11.81mil|HoleSize=0mil|Usage=FLASHONLY|Rotation=180.000|XOffset=0mil|YOffset=0mil|HoleType=Round|Shape=RoundedRectangle|*
%AMROUNDEDRECTD12*
21,1,0.04724,0.09744,0,0,180.0*
21,1,0.02362,0.12106,0,0,180.0*
1,1,0.02362,-0.01181,0.04872*
1,1,0.02362,0.01181,0.04872*
1,1,0.02362,0.01181,-0.04872*
1,1,0.02362,-0.01181,-0.04872*
%
%ADD12ROUNDEDRECTD12*%
G04:AMPARAMS|DCode=13|XSize=47.24mil|YSize=118.7mil|CornerRadius=11.81mil|HoleSize=0mil|Usage=FLASHONLY|Rotation=0.000|XOffset=0mil|YOffset=0mil|HoleType=Round|Shape=RoundedRectangle|*
%AMROUNDEDRECTD13*
21,1,0.04724,0.09508,0,0,0.0*
21,1,0.02362,0.11870,0,0,0.0*
1,1,0.02362,0.01181,-0.04754*
1,1,0.02362,-0.01181,-0.04754*
1,1,0.02362,-0.01181,0.04754*
1,1,0.02362,0.01181,0.04754*
%
%ADD13ROUNDEDRECTD13*%
%ADD14R,0.35433X0.39370*%
%ADD15R,0.11417X0.21260*%
%ADD16R,0.05315X0.04528*%
%ADD17R,0.09843X0.06693*%
%ADD27C,0.04724*%
%ADD28O,0.08268X0.05512*%
G04:AMPARAMS|DCode=29|XSize=157.48mil|YSize=157.48mil|CornerRadius=39.37mil|HoleSize=0mil|Usage=FLASHONLY|Rotation=0.000|XOffset=0mil|YOffset=0mil|HoleType=Round|Shape=RoundedRectangle|*
%AMROUNDEDRECTD29*
21,1,0.15748,0.07874,0,0,0.0*
21,1,0.07874,0.15748,0,0,0.0*
1,1,0.07874,0.03937,-0.03937*
1,1,0.07874,-0.03937,-0.03937*
1,1,0.07874,-0.03937,0.03937*
1,1,0.07874,0.03937,0.03937*
%
%ADD29ROUNDEDRECTD29*%
%ADD30C,0.02756*%
G36*
X491315Y246874D02*
X335456D01*
Y353520D01*
X491315D01*
Y246874D01*
D02*
G37*
%LPC*%
G36*
X484252Y351428D02*
X482965Y351259D01*
X481766Y350762D01*
X480736Y349972D01*
X479946Y348942D01*
X479450Y347743D01*
X479280Y346457D01*
X479450Y345170D01*
X479946Y343971D01*
X480736Y342941D01*
X481766Y342151D01*
X482965Y341654D01*
X484252Y341485D01*
X485539Y341654D01*
X486738Y342151D01*
X487768Y342941D01*
X488558Y343971D01*
X489054Y345170D01*
X489224Y346457D01*
X489054Y347743D01*
X488558Y348942D01*
X487768Y349972D01*
X486738Y350762D01*
X485539Y351259D01*
X484252Y351428D01*
D02*
G37*
G36*
X342520D02*
X341233Y351259D01*
X340034Y350762D01*
X339004Y349972D01*
X338214Y348942D01*
X337717Y347743D01*
X337548Y346457D01*
X337717Y345170D01*
X338214Y343971D01*
X339004Y342941D01*
X340034Y342151D01*
X341233Y341654D01*
X342520Y341485D01*
X343806Y341654D01*
X345005Y342151D01*
X346035Y342941D01*
X346825Y343971D01*
X347322Y345170D01*
X347491Y346457D01*
X347322Y347743D01*
X346825Y348942D01*
X346035Y349972D01*
X345005Y350762D01*
X343806Y351259D01*
X342520Y351428D01*
D02*
G37*
G36*
X430610Y343110D02*
X428150D01*
Y341043D01*
X430610D01*
Y343110D01*
D02*
G37*
G36*
X426181D02*
X423721D01*
Y341043D01*
X426181D01*
Y343110D01*
D02*
G37*
G36*
X430610Y339075D02*
X428150D01*
Y337008D01*
X430610D01*
Y339075D01*
D02*
G37*
G36*
X426181D02*
X423721D01*
Y337008D01*
X426181D01*
Y339075D01*
D02*
G37*
G36*
X427165Y336156D02*
X426393Y336054D01*
X426339Y336032D01*
X423909D01*
Y330307D01*
X424179D01*
Y323262D01*
X422059D01*
X422059Y323262D01*
X421286Y323160D01*
X420566Y322862D01*
X419947Y322387D01*
X417180Y319620D01*
X416705Y319001D01*
X416407Y318281D01*
X416305Y317508D01*
Y302418D01*
X412149Y298262D01*
X405512D01*
X404739Y298160D01*
X404019Y297862D01*
X403400Y297387D01*
X398339Y292326D01*
X397865Y291708D01*
X397566Y290987D01*
X397465Y290215D01*
Y284879D01*
X397455Y284833D01*
Y275325D01*
X397593Y274630D01*
X397987Y274042D01*
X398575Y273649D01*
X399270Y273510D01*
X401632D01*
X402326Y273649D01*
X402915Y274042D01*
X403308Y274630D01*
X403446Y275325D01*
Y284833D01*
X403437Y284879D01*
Y288978D01*
X406749Y292289D01*
X413386D01*
X414159Y292391D01*
X414879Y292689D01*
X415497Y293164D01*
X421403Y299069D01*
X421877Y299688D01*
X422176Y300408D01*
X422277Y301181D01*
Y316271D01*
X423296Y317289D01*
X427067D01*
X427840Y317391D01*
X428131Y317512D01*
X430421D01*
Y323236D01*
X430152D01*
Y330307D01*
X430421D01*
Y336032D01*
X427992D01*
X427938Y336054D01*
X427165Y336156D01*
D02*
G37*
G36*
X373031Y300845D02*
X339567D01*
X339109Y300655D01*
X336156Y297702D01*
X335966Y297244D01*
X335966Y266732D01*
X336156Y266274D01*
X340093Y262337D01*
X340551Y262147D01*
X373031Y262147D01*
X373489Y262337D01*
X376805Y265653D01*
X377305Y265446D01*
Y253937D01*
X377495Y253479D01*
X381432Y249542D01*
X381890Y249352D01*
X389764D01*
X390222Y249542D01*
X392190Y251511D01*
X392380Y251969D01*
Y257606D01*
X395938Y261163D01*
X411149D01*
X414896Y257416D01*
X415354Y257226D01*
X433071D01*
X433529Y257416D01*
X439434Y263321D01*
X439624Y263779D01*
Y287402D01*
X439434Y287860D01*
X435497Y291797D01*
X435039Y291986D01*
X421260D01*
X420802Y291797D01*
X416865Y287860D01*
X416675Y287402D01*
Y275859D01*
X411149Y270333D01*
X392001D01*
X390411Y271922D01*
Y287402D01*
X390222Y287860D01*
X389764Y288049D01*
X385827D01*
X385369Y287860D01*
X383984Y286474D01*
X383522Y286666D01*
Y290354D01*
X383332Y290812D01*
X373489Y300655D01*
X373031Y300845D01*
D02*
G37*
G36*
X484252Y259893D02*
X482965Y259723D01*
X481766Y259227D01*
X480736Y258437D01*
X479946Y257407D01*
X479450Y256208D01*
X479280Y254921D01*
X479450Y253635D01*
X479946Y252435D01*
X480736Y251406D01*
X481766Y250616D01*
X482965Y250119D01*
X484252Y249950D01*
X485539Y250119D01*
X486738Y250616D01*
X487768Y251406D01*
X488558Y252435D01*
X489054Y253635D01*
X489224Y254921D01*
X489054Y256208D01*
X488558Y257407D01*
X487768Y258437D01*
X486738Y259227D01*
X485539Y259723D01*
X484252Y259893D01*
D02*
G37*
G36*
X342520D02*
X341233Y259723D01*
X340034Y259227D01*
X339004Y258437D01*
X338214Y257407D01*
X337717Y256208D01*
X337548Y254921D01*
X337717Y253635D01*
X338214Y252435D01*
X339004Y251406D01*
X340034Y250616D01*
X341233Y250119D01*
X342520Y249950D01*
X343806Y250119D01*
X345005Y250616D01*
X346035Y251406D01*
X346825Y252435D01*
X347322Y253635D01*
X347491Y254921D01*
X347322Y256208D01*
X346825Y257407D01*
X346035Y258437D01*
X345005Y259227D01*
X343806Y259723D01*
X342520Y259893D01*
D02*
G37*
G36*
X457677Y325451D02*
X444882D01*
X444424Y325261D01*
X435755Y316593D01*
X424213D01*
X423755Y316403D01*
X423565Y315945D01*
Y302165D01*
X423755Y301707D01*
X426707Y298755D01*
X427165Y298565D01*
X438708D01*
X442266Y295007D01*
Y261811D01*
X442455Y261353D01*
X454266Y249542D01*
X454724Y249352D01*
X467520Y249352D01*
X467978Y249542D01*
X484530Y266095D01*
X485236D01*
X486420Y266251D01*
X487524Y266708D01*
X488471Y267435D01*
X489198Y268382D01*
X489655Y269485D01*
X489811Y270669D01*
Y271375D01*
X490616Y272180D01*
X490805Y272638D01*
X490805Y299213D01*
X490616Y299671D01*
X478804Y311482D01*
X478346Y311671D01*
X471725D01*
X458135Y325261D01*
X457677Y325451D01*
D02*
G37*
%LPD*%
G36*
X438976Y287402D02*
Y263779D01*
X433071Y257874D01*
X415354D01*
X411417Y261811D01*
X395669D01*
X391732Y257874D01*
Y251969D01*
X389764Y250000D01*
X381890D01*
X377953Y253937D01*
Y265748D01*
X383858Y271654D01*
Y285433D01*
X385827Y287402D01*
X389764D01*
Y271654D01*
X391732Y269685D01*
X411417D01*
X417323Y275590D01*
Y287402D01*
X421260Y291339D01*
X435039D01*
X438976Y287402D01*
D02*
G37*
G36*
X382874Y290354D02*
Y272638D01*
X373031Y262795D01*
X340551Y262795D01*
X336614Y266732D01*
X336614Y297244D01*
X339567Y300197D01*
X373031D01*
X382874Y290354D01*
D02*
G37*
G36*
X471457Y311024D02*
X478346D01*
X490158Y299213D01*
X490157Y272638D01*
X467520Y250000D01*
X454724Y250000D01*
X442913Y261811D01*
Y295276D01*
X438976Y299213D01*
X427165D01*
X424213Y302165D01*
Y315945D01*
X436024D01*
X444882Y324803D01*
X457677D01*
X471457Y311024D01*
D02*
G37*
D12*
X380201Y279961D02*
D03*
D13*
X386951Y280079D02*
D03*
X393701D02*
D03*
X400451D02*
D03*
X407201D02*
D03*
D14*
X393701Y321461D02*
D03*
D15*
X463976Y277559D02*
D03*
X425787D02*
D03*
D16*
X427165Y320374D02*
D03*
Y313484D02*
D03*
Y340059D02*
D03*
Y333169D02*
D03*
D17*
X385827Y255906D02*
D03*
X401575D02*
D03*
D27*
X400451Y290215D02*
X405512Y295276D01*
X413386D01*
X400451Y280079D02*
Y290215D01*
X419291Y301181D02*
Y317508D01*
X413386Y295276D02*
X419291Y301181D01*
X422059Y320276D02*
X427067D01*
X419291Y317508D02*
X422059Y320276D01*
X427067D02*
X427165Y320374D01*
Y333169D01*
D28*
X352362Y292323D02*
D03*
Y306102D02*
D03*
X452756Y319882D02*
D03*
Y333661D02*
D03*
D29*
X481299Y328740D02*
D03*
X350394Y329724D02*
D03*
X481299Y274606D02*
D03*
X350394Y273622D02*
D03*
D30*
X466535Y342520D02*
D03*
X460630Y330709D02*
D03*
X466535Y318898D02*
D03*
X454724Y342520D02*
D03*
X442913D02*
D03*
X437008Y330709D02*
D03*
X431102Y295275D02*
D03*
X419291Y342520D02*
D03*
X413386Y330709D02*
D03*
Y307086D02*
D03*
Y283465D02*
D03*
X395669Y295275D02*
D03*
X383858D02*
D03*
X372047Y342520D02*
D03*
X366142Y330709D02*
D03*
X372047Y318898D02*
D03*
X366142Y307086D02*
D03*
X360236Y342520D02*
D03*
Y318898D02*
D03*
X348425D02*
D03*
X342520Y307086D02*
D03*
M02*
