M48
;Layer_Color=9474304
;FILE_FORMAT=2:5
INCH,TZ
;TYPE=PLATED
T1F00S00C0.01181
T2F00S00C0.03150
T3F00S00C0.07874
T4F00S00C0.08661
%
T01
X342520Y307086
X366142
X383858Y295275
X395669
X413386Y307086
Y283465
X431102Y295275
X437008Y330709
X442913Y342520
X454724
X466535
X460630Y330709
X466535Y318898
X413386Y330709
X419291Y342520
X372047
X360236
X366142Y330709
X372047Y318898
X360236
X348425
T02
X352362Y292323
Y306102
X452756Y319882
Y333661
T03
X481299Y274606
X350394Y273622
Y329724
X481299Y328740
T04
X484252Y254921
X342520
Y346457
X484252
M30
