G04*
G04 #@! TF.GenerationSoftware,Altium Limited,Altium Designer,20.2.5 (213)*
G04*
G04 Layer_Color=32768*
%FSLAX25Y25*%
%MOIN*%
G70*
G04*
G04 #@! TF.SameCoordinates,D13279C3-A8A1-413E-BFD4-EE2126F61682*
G04*
G04*
G04 #@! TF.FilePolarity,Positive*
G04*
G01*
G75*
%ADD31C,0.00394*%
%ADD33C,0.00197*%
D31*
X352362Y294291D02*
Y299213D01*
X347441D02*
X352362D01*
Y304134D01*
Y299213D02*
X357283D01*
X387701Y314961D02*
X399701D01*
X393701Y308961D02*
Y320961D01*
X368701Y267461D02*
Y306961D01*
Y267461D02*
X418701D01*
Y344961D01*
X368701D02*
X418701D01*
X368701Y306961D02*
Y344961D01*
X444882Y275590D02*
Y279528D01*
X442913Y277559D02*
X446850D01*
X427165Y314961D02*
Y318898D01*
X425197Y316929D02*
X429134D01*
X452756Y321850D02*
Y326772D01*
X447835D02*
X452756D01*
Y331693D01*
Y326772D02*
X457677D01*
X393701Y253937D02*
Y257874D01*
X391732Y255906D02*
X395669D01*
X427165Y334646D02*
Y338583D01*
X425197Y336614D02*
X429134D01*
D33*
X335827Y282677D02*
Y315748D01*
Y282677D02*
X368898D01*
Y315748D01*
X335827D02*
X368898D01*
X416437Y251378D02*
X473327D01*
X416437Y303740D02*
X473327D01*
Y251378D02*
Y303740D01*
X416437Y251378D02*
Y303740D01*
X423425Y323622D02*
X430905D01*
X423425Y310236D02*
X430905D01*
Y323622D01*
X423425Y310236D02*
Y323622D01*
X436221Y310236D02*
Y343307D01*
Y310236D02*
X469291D01*
Y343307D01*
X436221D02*
X469291D01*
X379701Y262795D02*
X407701D01*
X379701Y249016D02*
X407701D01*
X379701D02*
Y262795D01*
X407701Y249016D02*
Y262795D01*
X423425Y343307D02*
X430905D01*
X423425Y329921D02*
X430905D01*
Y343307D01*
X423425Y329921D02*
Y343307D01*
M02*
